<svg xmlns="http://www.w3.org/2000/svg" xmlns:xlink="http://www.w3.org/1999/xlink" width="380" zoomAndPan="magnify" viewBox="0 0 285 53.25" height="71" preserveAspectRatio="xMidYMid meet" version="1.0"><defs><g/><clipPath id="0b0f63e63f"><path d="M 1.980469 0 L 65.582031 0 L 65.582031 52.511719 L 1.980469 52.511719 Z M 1.980469 0 " clip-rule="nonzero"/></clipPath></defs><g clip-path="url(#0b0f63e63f)"><path fill="#3476df" d="M 20.515625 51.472656 L 30.472656 41.515625 C 30.984375 41.007812 31.8125 41.007812 32.320312 41.515625 L 41.09375 50.292969 C 42.039062 51.234375 43.578125 51.234375 44.523438 50.292969 L 47.574219 47.242188 C 48.03125 46.78125 48.285156 46.175781 48.285156 45.527344 C 48.285156 44.878906 48.03125 44.269531 47.574219 43.8125 L 33.113281 29.351562 C 32.167969 28.40625 30.628906 28.40625 29.683594 29.351562 L 14.039062 44.996094 C 13.09375 45.941406 13.09375 47.480469 14.039062 48.425781 L 17.085938 51.472656 C 17.558594 51.949219 18.179688 52.183594 18.800781 52.183594 C 19.421875 52.183594 20.042969 51.949219 20.515625 51.472656 Z M 61.5 44.691406 L 64.550781 41.644531 C 65.007812 41.183594 65.261719 40.578125 65.261719 39.929688 C 65.261719 39.28125 65.007812 38.671875 64.550781 38.214844 L 44.398438 18.0625 C 43.453125 17.117188 41.914062 17.117188 40.96875 18.0625 L 37.921875 21.113281 C 36.976562 22.058594 36.976562 23.597656 37.921875 24.542969 L 58.070312 44.691406 C 58.542969 45.164062 59.164062 45.402344 59.785156 45.402344 C 60.40625 45.402344 61.027344 45.164062 61.5 44.691406 Z M 7.453125 40.835938 C 6.804688 40.835938 6.199219 40.585938 5.738281 40.125 L 2.691406 37.078125 C 2.230469 36.617188 1.980469 36.011719 1.980469 35.363281 C 1.980469 34.714844 2.230469 34.105469 2.691406 33.648438 L 35.390625 0.949219 C 36.335938 0.00390625 37.875 0.00390625 38.820312 0.949219 L 41.867188 3.996094 C 42.8125 4.941406 42.8125 6.480469 41.867188 7.425781 L 9.167969 40.125 C 8.710938 40.585938 8.101562 40.835938 7.453125 40.835938 " fill-opacity="1" fill-rule="nonzero"/></g><g fill="#ffffff" fill-opacity="1"><g transform="translate(76.772635, 34.969081)"><g><path d="M 14.765625 0 L 13.96875 -2.671875 L 7.3125 -2.671875 L 6.515625 0 L 0.28125 0 L 7.203125 -19 L 14.296875 -19 L 21.234375 0 Z M 8.59375 -6.9375 L 12.703125 -6.9375 L 10.71875 -13.6875 L 10.609375 -13.6875 Z M 8.59375 -6.9375 "/></g></g></g><g fill="#ffffff" fill-opacity="1"><g transform="translate(98.251145, 34.969081)"><g><path d="M 10.015625 -19.328125 C 12.453125 -19.328125 14.453125 -18.832031 16.015625 -17.84375 C 17.578125 -16.863281 18.378906 -15.40625 18.421875 -13.46875 L 18.421875 -13.140625 L 12.703125 -13.140625 L 12.703125 -13.25 C 12.703125 -13.800781 12.5 -14.257812 12.09375 -14.625 C 11.6875 -15 11.070312 -15.1875 10.25 -15.1875 C 9.4375 -15.1875 8.8125 -15.066406 8.375 -14.828125 C 7.945312 -14.585938 7.734375 -14.289062 7.734375 -13.9375 C 7.734375 -13.445312 8.023438 -13.082031 8.609375 -12.84375 C 9.203125 -12.601562 10.148438 -12.351562 11.453125 -12.09375 C 12.984375 -11.78125 14.238281 -11.453125 15.21875 -11.109375 C 16.207031 -10.773438 17.066406 -10.21875 17.796875 -9.4375 C 18.535156 -8.664062 18.914062 -7.617188 18.9375 -6.296875 C 18.9375 -4.046875 18.175781 -2.378906 16.65625 -1.296875 C 15.144531 -0.210938 13.117188 0.328125 10.578125 0.328125 C 7.609375 0.328125 5.300781 -0.164062 3.65625 -1.15625 C 2.007812 -2.15625 1.1875 -3.914062 1.1875 -6.4375 L 6.953125 -6.4375 C 6.953125 -5.476562 7.203125 -4.835938 7.703125 -4.515625 C 8.203125 -4.191406 8.972656 -4.03125 10.015625 -4.03125 C 10.796875 -4.03125 11.4375 -4.113281 11.9375 -4.28125 C 12.445312 -4.445312 12.703125 -4.785156 12.703125 -5.296875 C 12.703125 -5.753906 12.421875 -6.097656 11.859375 -6.328125 C 11.296875 -6.566406 10.378906 -6.8125 9.109375 -7.0625 C 7.566406 -7.394531 6.285156 -7.738281 5.265625 -8.09375 C 4.253906 -8.457031 3.367188 -9.050781 2.609375 -9.875 C 1.859375 -10.707031 1.484375 -11.832031 1.484375 -13.25 C 1.484375 -15.332031 2.289062 -16.863281 3.90625 -17.84375 C 5.519531 -18.832031 7.554688 -19.328125 10.015625 -19.328125 Z M 10.015625 -19.328125 "/></g></g></g><g fill="#ffffff" fill-opacity="1"><g transform="translate(118.183646, 34.969081)"><g><path d="M 12.96875 -14.140625 L 12.96875 0 L 6.875 0 L 6.875 -14.140625 L 0.640625 -14.140625 L 0.640625 -19 L 19.1875 -19 L 19.1875 -14.140625 Z M 12.96875 -14.140625 "/></g></g></g><g fill="#ffffff" fill-opacity="1"><g transform="translate(138.116147, 34.969081)"><g><path d="M 20.078125 -13.171875 C 20.078125 -12.015625 19.757812 -10.960938 19.125 -10.015625 C 18.5 -9.078125 17.59375 -8.390625 16.40625 -7.953125 L 20.625 0 L 13.78125 0 L 10.40625 -6.9375 L 8.140625 -6.9375 L 8.140625 0 L 2.046875 0 L 2.046875 -19 L 13.671875 -19 C 15.023438 -19 16.1875 -18.734375 17.15625 -18.203125 C 18.125 -17.679688 18.851562 -16.972656 19.34375 -16.078125 C 19.832031 -15.191406 20.078125 -14.222656 20.078125 -13.171875 Z M 13.859375 -12.921875 C 13.859375 -13.421875 13.691406 -13.832031 13.359375 -14.15625 C 13.023438 -14.488281 12.617188 -14.65625 12.140625 -14.65625 L 8.140625 -14.65625 L 8.140625 -11.15625 L 12.140625 -11.15625 C 12.617188 -11.15625 13.023438 -11.320312 13.359375 -11.65625 C 13.691406 -12 13.859375 -12.421875 13.859375 -12.921875 Z M 13.859375 -12.921875 "/></g></g></g><g fill="#ffffff" fill-opacity="1"><g transform="translate(159.594657, 34.969081)"><g><path d="M 11.484375 -19.328125 C 14.765625 -19.328125 17.296875 -18.488281 19.078125 -16.8125 C 20.859375 -15.132812 21.75 -12.695312 21.75 -9.5 C 21.75 -6.289062 20.859375 -3.847656 19.078125 -2.171875 C 17.296875 -0.503906 14.765625 0.328125 11.484375 0.328125 C 8.210938 0.328125 5.6875 -0.503906 3.90625 -2.171875 C 2.132812 -3.835938 1.25 -6.28125 1.25 -9.5 C 1.25 -12.71875 2.132812 -15.160156 3.90625 -16.828125 C 5.6875 -18.492188 8.210938 -19.328125 11.484375 -19.328125 Z M 11.484375 -14.765625 C 10.179688 -14.765625 9.1875 -14.367188 8.5 -13.578125 C 7.820312 -12.785156 7.484375 -11.71875 7.484375 -10.375 L 7.484375 -8.609375 C 7.484375 -7.265625 7.820312 -6.195312 8.5 -5.40625 C 9.1875 -4.613281 10.179688 -4.21875 11.484375 -4.21875 C 12.796875 -4.21875 13.796875 -4.613281 14.484375 -5.40625 C 15.171875 -6.195312 15.515625 -7.265625 15.515625 -8.609375 L 15.515625 -10.375 C 15.515625 -11.71875 15.171875 -12.785156 14.484375 -13.578125 C 13.796875 -14.367188 12.796875 -14.765625 11.484375 -14.765625 Z M 11.484375 -14.765625 "/></g></g></g><g fill="#ffffff" fill-opacity="1"><g transform="translate(182.591572, 34.969081)"><g><path d="M 12.703125 -19 C 13.878906 -19 14.925781 -18.722656 15.84375 -18.171875 C 16.769531 -17.628906 17.488281 -16.882812 18 -15.9375 C 18.519531 -14.988281 18.78125 -13.925781 18.78125 -12.75 L 18.78125 -12.390625 C 18.78125 -11.210938 18.519531 -10.144531 18 -9.1875 C 17.488281 -8.238281 16.769531 -7.488281 15.84375 -6.9375 C 14.925781 -6.394531 13.878906 -6.125 12.703125 -6.125 L 8.140625 -6.125 L 8.140625 0 L 2.046875 0 L 2.046875 -19 Z M 8.140625 -10.578125 L 10.65625 -10.578125 C 11.300781 -10.578125 11.785156 -10.738281 12.109375 -11.0625 C 12.429688 -11.394531 12.59375 -11.847656 12.59375 -12.421875 L 12.59375 -12.640625 C 12.59375 -13.234375 12.429688 -13.691406 12.109375 -14.015625 C 11.785156 -14.335938 11.300781 -14.5 10.65625 -14.5 L 8.140625 -14.5 Z M 8.140625 -10.578125 "/></g></g></g><g fill="#ffffff" fill-opacity="1"><g transform="translate(202.524073, 34.969081)"><g><path d="M 11.484375 -19.328125 C 14.765625 -19.328125 17.296875 -18.488281 19.078125 -16.8125 C 20.859375 -15.132812 21.75 -12.695312 21.75 -9.5 C 21.75 -6.289062 20.859375 -3.847656 19.078125 -2.171875 C 17.296875 -0.503906 14.765625 0.328125 11.484375 0.328125 C 8.210938 0.328125 5.6875 -0.503906 3.90625 -2.171875 C 2.132812 -3.835938 1.25 -6.28125 1.25 -9.5 C 1.25 -12.71875 2.132812 -15.160156 3.90625 -16.828125 C 5.6875 -18.492188 8.210938 -19.328125 11.484375 -19.328125 Z M 11.484375 -14.765625 C 10.179688 -14.765625 9.1875 -14.367188 8.5 -13.578125 C 7.820312 -12.785156 7.484375 -11.71875 7.484375 -10.375 L 7.484375 -8.609375 C 7.484375 -7.265625 7.820312 -6.195312 8.5 -5.40625 C 9.1875 -4.613281 10.179688 -4.21875 11.484375 -4.21875 C 12.796875 -4.21875 13.796875 -4.613281 14.484375 -5.40625 C 15.171875 -6.195312 15.515625 -7.265625 15.515625 -8.609375 L 15.515625 -10.375 C 15.515625 -11.71875 15.171875 -12.785156 14.484375 -13.578125 C 13.796875 -14.367188 12.796875 -14.765625 11.484375 -14.765625 Z M 11.484375 -14.765625 "/></g></g></g><g fill="#ffffff" fill-opacity="1"><g transform="translate(225.520987, 34.969081)"><g><path d="M 20.078125 -13.171875 C 20.078125 -12.015625 19.757812 -10.960938 19.125 -10.015625 C 18.5 -9.078125 17.59375 -8.390625 16.40625 -7.953125 L 20.625 0 L 13.78125 0 L 10.40625 -6.9375 L 8.140625 -6.9375 L 8.140625 0 L 2.046875 0 L 2.046875 -19 L 13.671875 -19 C 15.023438 -19 16.1875 -18.734375 17.15625 -18.203125 C 18.125 -17.679688 18.851562 -16.972656 19.34375 -16.078125 C 19.832031 -15.191406 20.078125 -14.222656 20.078125 -13.171875 Z M 13.859375 -12.921875 C 13.859375 -13.421875 13.691406 -13.832031 13.359375 -14.15625 C 13.023438 -14.488281 12.617188 -14.65625 12.140625 -14.65625 L 8.140625 -14.65625 L 8.140625 -11.15625 L 12.140625 -11.15625 C 12.617188 -11.15625 13.023438 -11.320312 13.359375 -11.65625 C 13.691406 -12 13.859375 -12.421875 13.859375 -12.921875 Z M 13.859375 -12.921875 "/></g></g></g><g fill="#ffffff" fill-opacity="1"><g transform="translate(246.999497, 34.969081)"><g><path d="M 12.96875 -14.140625 L 12.96875 0 L 6.875 0 L 6.875 -14.140625 L 0.640625 -14.140625 L 0.640625 -19 L 19.1875 -19 L 19.1875 -14.140625 Z M 12.96875 -14.140625 "/></g></g></g></svg>