<svg xmlns="http://www.w3.org/2000/svg" xmlns:xlink="http://www.w3.org/1999/xlink" width="500" zoomAndPan="magnify" viewBox="0 0 375 374.999991" height="500" preserveAspectRatio="xMidYMid meet" version="1.0"><defs><clipPath id="bab2ecd429"><path d="M 7.957031 38 L 367.207031 38 L 367.207031 333.75 L 7.957031 333.75 Z M 7.957031 38 " clip-rule="nonzero"/></clipPath></defs><g clip-path="url(#bab2ecd429)"><path fill="#3476df" d="M 113.152344 329.589844 L 169.652344 273.089844 C 172.542969 270.199219 177.25 270.203125 180.136719 273.089844 L 229.921875 322.875 C 235.285156 328.238281 244.015625 328.238281 249.378906 322.875 L 266.6875 305.570312 C 269.285156 302.96875 270.714844 299.515625 270.714844 295.835938 C 270.714844 292.160156 269.285156 288.710938 266.6875 286.109375 L 184.625 204.046875 C 179.261719 198.683594 170.53125 198.683594 165.167969 204.046875 L 76.386719 292.828125 C 71.023438 298.195312 71.023438 306.921875 76.386719 312.289062 L 93.691406 329.589844 C 96.375 332.277344 99.898438 333.617188 103.421875 333.617188 C 106.945312 333.617188 110.46875 332.277344 113.152344 329.589844 Z M 345.707031 291.113281 L 363.011719 273.804688 C 365.613281 271.207031 367.042969 267.75 367.042969 264.078125 C 367.042969 260.402344 365.613281 256.941406 363.011719 254.34375 L 248.671875 140.003906 C 243.304688 134.636719 234.578125 134.636719 229.210938 140.003906 L 211.90625 157.308594 C 206.542969 162.671875 206.542969 171.402344 211.90625 176.765625 L 326.25 291.113281 C 328.933594 293.792969 332.453125 295.132812 335.980469 295.132812 C 339.5 295.132812 343.027344 293.792969 345.707031 291.113281 Z M 39.023438 269.226562 C 35.351562 269.226562 31.894531 267.796875 29.296875 265.195312 L 11.992188 247.890625 C 9.390625 245.289062 7.960938 241.835938 7.960938 238.160156 C 7.960938 234.484375 9.390625 231.03125 11.992188 228.433594 L 197.542969 42.878906 C 202.90625 37.511719 211.636719 37.511719 217.003906 42.878906 L 234.304688 60.183594 C 239.671875 65.546875 239.671875 74.277344 234.304688 79.640625 L 48.753906 265.195312 C 46.15625 267.796875 42.699219 269.226562 39.023438 269.226562 " fill-opacity="1" fill-rule="nonzero"/></g></svg>